<svg width="42" height="44" viewBox="0 0 42 44" fill="none" xmlns="http://www.w3.org/2000/svg">
<path fill-rule="evenodd" clip-rule="evenodd" d="M31.4964 17.6413L30.0773 18.5179C30.004 18.5627 29.9923 18.5562 29.9671 18.4791C29.9015 18.2909 30.0013 17.9987 30.1353 17.9162L30.1349 17.915L30.7606 17.5284C30.8303 17.4848 30.8757 17.419 30.8622 17.3802L30.6531 17.0294C30.6396 16.9906 30.5775 16.99 30.5145 17.0288L29.4049 17.7136C29.3478 17.7489 29.3095 17.8045 29.3136 17.8445C29.314 17.8475 29.3527 18.2072 29.3527 18.2072C29.3779 18.4026 29.3482 18.9452 29.1274 19.1125C29.1211 19.1173 29.1143 19.1226 29.1085 19.128C29.1031 19.1328 29.0981 19.1376 29.0936 19.1418C29.0261 19.2075 28.9884 19.2762 29.0032 19.3198L29.2277 19.9604C29.2497 20.0238 29.3734 20.0094 29.5038 19.9293L31.8009 18.5108C31.9309 18.4301 32.0186 18.3136 31.9966 18.2508L31.7726 17.6103C31.7506 17.5475 31.6264 17.5607 31.4964 17.6413Z" fill="#FFFFFE"/>
<path fill-rule="evenodd" clip-rule="evenodd" d="M34.0031 29.7149C33.9856 29.6854 34.0443 29.6349 34.1345 29.6022L35.7204 29.0263C35.8106 28.9936 35.8978 28.9909 35.9152 29.0209L35.9966 29.3538C36.014 29.3829 35.9629 29.431 35.8821 29.4601L34.4565 29.9783C34.3757 30.0074 34.2961 30.0074 34.2786 29.9774L34.0031 29.7149Z" fill="#FFFFFE"/>
<path fill-rule="evenodd" clip-rule="evenodd" d="M17.8443 6C17.8443 6 16.9074 6.87141 17.0075 7.64397C17.0526 7.99647 17.8364 8 17.8364 8L18 6.15482L17.8443 6Z" fill="#FFFFFE"/>
<mask id="mask0_4_220" style="mask-type:luminance" maskUnits="userSpaceOnUse" x="16" y="0" width="15" height="9">
<path d="M16.39 0.0799408H30.804V8.86606H16.39V0.0799408Z" fill="white"/>
</mask>
<g mask="url(#mask0_4_220)">
<path fill-rule="evenodd" clip-rule="evenodd" d="M22.886 8.721C22.886 8.721 22.0695 5.34388 22.043 5.23747C21.9935 5.04106 21.9175 4.90447 21.7045 4.77477C21.644 4.73824 20.5895 4.12888 20.5895 4.12888L20.0565 4.26071C20.0565 4.26071 20.491 4.51535 20.627 4.60482C20.762 4.69218 20.942 4.94365 20.7035 5.013C20.465 5.0813 20.186 5.18506 20.186 5.18506L19.793 4.40259C19.793 4.40259 18.9775 4.33165 18.6565 4.31206C18.3345 4.29406 18.2595 4.51324 18.2595 4.51324L17.737 5.40477L18.042 5.32906L19.535 6.27724L18.844 8.71677L19.4875 8.397C19.6245 8.3303 19.7595 8.27947 20.023 8.41712L20.833 8.86606L21.6025 8.44888C21.6055 8.44782 21.608 8.44677 21.611 8.44518C21.92 8.27788 22.0535 8.35253 22.215 8.42241L22.886 8.721Z" fill="#FFFFFE"/>
</g>
<mask id="mask1_4_220" style="mask-type:luminance" maskUnits="userSpaceOnUse" x="16" y="0" width="15" height="9">
<path d="M16.39 0.0799408H30.804V8.86606H16.39V0.0799408Z" fill="white"/>
</mask>
<g mask="url(#mask1_4_220)">
<path fill-rule="evenodd" clip-rule="evenodd" d="M30.669 2.68835C30.647 2.66241 30.5635 2.66135 30.4595 2.67882C30.2415 2.71694 29.924 2.75876 29.827 2.77676C29.3345 2.86412 29.1705 2.43371 29.1705 2.43371C29.1705 2.43371 29.647 1.76824 29.7265 1.65759C29.7965 1.56229 29.712 1.39765 29.666 1.35265C29.438 1.46382 29.214 1.57871 29.041 1.67241C28.772 1.82224 28.2725 2.00065 28.2725 1.72059C28.2725 1.44953 28.269 1.23777 28.26 1.21129C28.173 0.925942 27.963 0.945 27.963 0.945L20.6745 0.940236C20.6745 0.940236 20.2925 0.953471 20.138 0.924883C19.984 0.895765 19.7325 0.809471 19.361 0.645883C18.8775 0.431471 18.32 0.176294 18.1415 0.0937062C18.1045 0.0772945 18.0525 0.074118 17.999 0.0910592C17.6685 0.185824 16.4865 0.494471 16.3915 1.43788C16.334 2.00276 17.9555 3.73077 18.2575 4.01718C18.3335 4.01718 18.5565 4.014 18.5565 4.014C18.5565 4.014 17.8405 2.68571 17.852 2.57612C17.8595 2.51788 18.11 2.32041 18.2085 2.24841C18.2345 2.23041 18.2585 2.22406 18.285 2.23994C18.312 2.25582 19.2015 2.76988 19.2015 2.76988C19.2015 2.76988 19.36 2.86729 19.5235 2.86729C20.509 2.86729 27.736 2.86518 27.828 2.86518C27.9275 2.86518 27.938 2.89588 27.938 2.916C27.938 3.05153 27.937 3.26541 27.938 3.46341C27.939 3.59471 28.056 3.70747 28.215 3.76465C28.821 3.98594 30.037 3.32841 30.804 2.84824C30.7915 2.83394 30.7175 2.74765 30.669 2.68835Z" fill="#FFFFFE"/>
</g>
<path fill-rule="evenodd" clip-rule="evenodd" d="M11.0298 42.1011C11.1897 42.1438 11.3932 42.2197 11.4547 42.3396C11.6139 42.6488 11.6274 42.663 11.8069 42.722C11.8069 42.722 11.9391 42.7694 11.9582 42.776C11.9637 42.7871 11.9895 42.8405 12 42.8627C11.8531 42.9008 11.1528 43.0721 10.7734 42.9656C10.6492 42.9306 10.5706 42.8682 10.541 42.7795L10.5128 42.6984C10.3941 42.3511 10.332 42.1743 10.0412 42.0952C10.035 42.0842 10.0123 42.0377 10 42.0124C10.1808 41.9826 10.6671 42.0044 11.0298 42.1011Z" fill="#FFFFFE"/>
<path fill-rule="evenodd" clip-rule="evenodd" d="M9.6133 42.4092C9.70331 42.5252 9.81123 42.708 9.81402 42.932C9.82158 43.4942 9.82557 43.5216 9.92035 43.6673C9.92035 43.6673 9.98965 43.7814 9.9996 43.7978C9.9996 43.8191 9.9996 43.915 10 43.9557C9.89885 43.983 9.4086 44.0929 9.20191 43.8142C9.14058 43.7328 9.10992 43.6223 9.10992 43.4845C9.10992 43.4706 9.11031 43.4554 9.11111 43.4396L9.11788 43.2939C9.12784 43.0814 9.1358 42.9047 9.1358 42.7553C9.1358 42.473 9.10474 42.2921 9.0008 42.153C9.0004 42.133 9 42.0437 9 42C9.12147 41.9976 9.41577 42.1567 9.6133 42.4092Z" fill="#FFFFFE"/>
<path fill-rule="evenodd" clip-rule="evenodd" d="M2.62994 26.0102C2.73862 25.9848 2.84528 26.0069 2.94591 26.0764L2.97912 26.0994C3.47925 26.4432 3.65484 26.5625 3.90491 26.4794C3.9195 26.4883 3.9678 26.517 4 26.5372C3.88126 26.6579 3.33333 27.1783 2.92981 26.9369C2.43522 26.6405 2.40553 26.6367 2.17006 26.6837C2.17006 26.6837 2.12277 26.6931 2.10566 26.6964C2.09057 26.6875 2.02918 26.6499 2 26.6316C2.05434 26.5315 2.31245 26.0849 2.62994 26.0102Z" fill="#FFFFFE"/>
<path fill-rule="evenodd" clip-rule="evenodd" d="M6.73998 22.6319C6.94235 23.0971 7.52922 23.3242 8.05485 23.1226C8.24231 23.0502 8.42338 22.9 8.52936 22.7492C8.55119 22.7193 8.55119 22.6858 8.52776 22.6629C8.5219 22.6589 8.51658 22.6569 8.51125 22.6544C8.08042 22.8006 7.62881 22.6674 7.48768 22.3444C7.34603 22.021 7.5697 21.6277 7.98775 21.449C7.99095 21.4351 7.99041 21.4206 7.98562 21.4076C7.9755 21.3866 7.95473 21.3747 7.93396 21.3692H7.93183C7.72307 21.3347 7.53455 21.3592 7.31993 21.4415C6.79963 21.6417 6.53814 22.1673 6.73998 22.6319ZM7.54094 23.7989C7.39342 23.5843 7.17827 23.5798 7.05099 23.5678C6.42205 23.5299 5.82559 23.8193 5.76435 23.8328C5.6818 23.8553 5.59286 23.8328 5.59286 23.8328C4.88883 23.5778 4.08361 23.2029 4 23.177C4.07136 22.9848 4.26734 22.7373 4.26734 22.7373C4.31953 22.6883 6.44601 19.9377 10.9663 20.0011C11.468 20.0081 11.6789 20.0006 12 20.0675C11.9334 20.1853 11.7619 20.3834 11.722 20.4323C10.2703 22.1747 8.97777 25.9426 8.94421 26C7.68739 25.0467 7.98615 24.4482 7.54094 23.7989Z" fill="#FFFFFE"/>
<path fill-rule="evenodd" clip-rule="evenodd" d="M6.34833 41C6.48421 41.0573 6.76459 41.3263 6.90813 41.6196C6.95455 41.7135 7 41.8384 7 41.9663C7 42.018 6.99282 42.0693 6.97464 42.119C6.8756 42.3925 6.83732 42.5047 6.83732 42.5879C6.83732 42.6382 6.8512 42.6783 6.87416 42.7376C6.87416 42.7376 6.91722 42.8615 6.92297 42.8792C6.91722 42.895 6.88947 42.9675 6.87751 43C6.75694 42.9716 6.18086 42.8188 6.03349 42.5027C6.01101 42.455 6 42.4047 6 42.353C6 42.2926 6.01483 42.2301 6.04498 42.1667L6.09569 42.0566C6.2512 41.7227 6.35167 41.5065 6.35167 41.3212C6.35167 41.2507 6.33588 41.1852 6.30431 41.1188C6.31005 41.103 6.33493 41.0355 6.34833 41Z" fill="#FFFFFE"/>
<path fill-rule="evenodd" clip-rule="evenodd" d="M5.44224 40C5.63122 40.0821 5.84824 40.3323 5.94538 40.5839C5.97438 40.6596 6 40.755 6 40.8544C6 40.9251 5.98695 40.9963 5.95263 41.065C5.79169 41.3829 5.74432 41.5026 5.74432 41.6183C5.74432 41.6717 5.75447 41.7246 5.768 41.7963C5.768 41.7963 5.78299 41.8754 5.78589 41.8927C5.77815 41.9061 5.74384 41.9679 5.72644 42C5.60947 41.9362 5.1015 41.6445 5.01305 41.3192C5.00435 41.287 5 41.2554 5 41.2252C5 41.1634 5.01788 41.1046 5.05317 41.0477L5.0609 41.0349C5.29386 40.6606 5.41566 40.4653 5.41566 40.2739C5.41566 40.219 5.40454 40.1651 5.38424 40.1063C5.39294 40.0915 5.42581 40.0307 5.44224 40Z" fill="#FFFFFE"/>
<path fill-rule="evenodd" clip-rule="evenodd" d="M4.5922 39C4.75917 39.1119 4.92752 39.3933 4.98119 39.6566C4.99174 39.7079 5 39.7694 5 39.8319C5 39.9297 4.98073 40.0332 4.91972 40.1212C4.67569 40.4753 4.63899 40.5594 4.63899 40.7157C4.63899 40.7445 4.64037 40.7748 4.64174 40.81C4.64174 40.81 4.6445 40.8876 4.6445 40.9047C4.63578 40.917 4.59495 40.9712 4.57385 41C4.47339 40.9189 4.03899 40.5535 4.00275 40.2213C4.00092 40.2062 4 40.192 4 40.1773C4 40.0972 4.02615 40.0259 4.0789 39.9619L4.08761 39.9516C4.39128 39.5852 4.53257 39.4143 4.53257 39.1988C4.53257 39.1661 4.52844 39.1329 4.52202 39.0972C4.53165 39.084 4.57248 39.0278 4.5922 39Z" fill="#FFFFFE"/>
<path fill-rule="evenodd" clip-rule="evenodd" d="M3.70212 38C3.76876 38.103 4 38.4819 4 38.8156C4 38.9332 3.97087 39.0452 3.89629 39.1387C3.57723 39.5312 3.54104 39.592 3.54104 39.7668C3.54104 39.7905 3.54148 39.8146 3.54237 39.8422C3.54237 39.8422 3.54325 39.8905 3.54369 39.908C3.5331 39.9206 3.48941 39.9739 3.46823 40C3.38394 39.9246 3.01942 39.5829 3.00088 39.2553C3.00044 39.2472 3 39.2387 3 39.2307C3 39.1266 3.03751 39.0337 3.11165 38.9533L3.13239 38.9307C3.49117 38.5437 3.64034 38.3819 3.64034 38.1588C3.64034 38.1347 3.63725 38.108 3.63372 38.0814C3.64431 38.0688 3.67829 38.0286 3.70212 38Z" fill="#FFFFFE"/>
<path fill-rule="evenodd" clip-rule="evenodd" d="M3.77479 37C3.82735 37.1049 4 37.4706 4 37.7964C4 37.9402 3.96581 38.0757 3.87222 38.177C3.49957 38.5754 3.48932 38.6036 3.4765 38.8501C3.4765 38.8501 3.4735 38.8982 3.47222 38.9161C3.46111 38.9279 3.41538 38.976 3.39316 39C3.31795 38.9161 3 38.5386 3 38.2077C3 38.2036 3 38.2 3 38.1959C3.00256 38.0798 3.04615 37.9811 3.13034 37.9018L3.1406 37.8921C3.55 37.5064 3.70385 37.3616 3.70385 37.11C3.70385 37.0987 3.70342 37.088 3.70299 37.0767C3.71453 37.065 3.75 37.0271 3.77479 37Z" fill="#FFFFFE"/>
<path fill-rule="evenodd" clip-rule="evenodd" d="M0 31.9017C0 31.7478 0.0357942 31.4768 0.260786 31.3137C0.380313 31.2266 0.540748 31.1795 0.737616 31.1743L0.839246 31.1711C1.47331 31.1531 1.69895 31.1451 1.84532 31C1.87216 31 1.95462 31.0008 1.99936 31.0008C2 31.0048 2 31.0088 2 31.014C2 31.1647 1.95398 31.7246 1.27709 31.7534L1.0163 31.7626C0.547779 31.7774 0.400128 31.783 0.161074 32C0.134228 31.9992 0.0485778 31.9992 0.00511346 31.9984C0.00319591 31.978 0 31.9452 0 31.9017Z" fill="#FFFFFE"/>
<path fill-rule="evenodd" clip-rule="evenodd" d="M1.97141 32C1.98046 32.0753 2 32.2563 2 32.4653C2 32.8099 1.94716 33.2258 1.70829 33.3439L1.56171 33.416C1.30727 33.5347 1.22765 33.5756 1.135 33.9689C1.12016 33.9734 1.07275 33.9916 1.0485 34C1.03474 33.9137 1 33.6658 1 33.3932C1 33.2103 1.01592 33.0195 1.06442 32.8605C1.11509 32.697 1.19544 32.5879 1.30402 32.5386L1.35758 32.5133C1.71625 32.3485 1.83134 32.2927 1.88636 32.0318C1.90119 32.0266 1.94644 32.0104 1.97141 32Z" fill="#FFFFFE"/>
<path fill-rule="evenodd" clip-rule="evenodd" d="M2.86941 28C2.89219 28.0054 2.96221 28.0212 3 28.031C2.96443 28.1931 2.75938 28.9853 2.15477 28.8874L1.92748 28.8493C1.52848 28.7791 1.40178 28.7601 1.13281 29C1.11003 28.9946 1.03723 28.9766 1 28.9679C1.02056 28.8417 1.1217 28.3313 1.42956 28.1094C1.55793 28.0169 1.70797 27.9864 1.87691 28.0169L1.95749 28.0321C2.51876 28.1349 2.69936 28.167 2.86941 28Z" fill="#FFFFFE"/>
<path fill-rule="evenodd" clip-rule="evenodd" d="M1.85604 29C1.87983 29.0027 1.95776 29.01 2 29.0136C1.98334 29.1506 1.86913 29.8268 1.21475 29.8073L0.971446 29.7973C0.535396 29.7796 0.397977 29.7741 0.142772 30C0.117787 29.9973 0.0404521 29.9905 0 29.9868C0.00475907 29.8807 0.0440214 29.4485 0.342058 29.2349C0.465794 29.1465 0.622249 29.1057 0.805473 29.1143L0.8953 29.1188C1.50327 29.1483 1.69899 29.1551 1.85604 29Z" fill="#FFFFFE"/>
<path fill-rule="evenodd" clip-rule="evenodd" d="M1.90256 34C1.92851 34.0985 2 34.3968 2 34.6897C2 34.9184 1.95607 35.1418 1.8111 35.2583C1.39856 35.5884 1.39417 35.6097 1.34385 35.8643C1.34385 35.8643 1.33387 35.9135 1.32987 35.9327C1.31789 35.9425 1.26877 35.9808 1.24441 36C1.19329 35.8998 1 35.5008 1 35.1708C1 35.1297 1.0028 35.0903 1.00958 35.052C1.02995 34.9321 1.08506 34.8402 1.17372 34.7794L1.17931 34.775C1.63498 34.4631 1.79433 34.3514 1.82468 34.0597C1.83706 34.0515 1.8758 34.0203 1.90256 34Z" fill="#FFFFFE"/>
<path fill-rule="evenodd" clip-rule="evenodd" d="M1.93142 33C1.94981 33.0832 2 33.3315 2 33.594C2 33.8643 1.94636 34.147 1.74751 34.2735L1.59962 34.3668C1.33946 34.5254 1.25747 34.5777 1.18736 34.9537C1.17241 34.9614 1.12414 34.9857 1.09923 35C1.07471 34.9073 1 34.6008 1 34.2914C1 34.1773 1.01034 34.0627 1.03755 33.9593C1.07931 33.8001 1.15632 33.6855 1.26705 33.6184L1.32069 33.5869C1.68736 33.3665 1.80498 33.2946 1.84406 33.0451C1.859 33.0368 1.90536 33.0137 1.93142 33Z" fill="#FFFFFE"/>
<path fill-rule="evenodd" clip-rule="evenodd" d="M2.83028 35C2.87188 35.1039 3 35.4504 3 35.7657C3 35.9379 2.96173 36.0992 2.85025 36.2062C2.46797 36.572 2.45216 36.5966 2.42221 36.8554C2.42221 36.8554 2.41639 36.9034 2.41431 36.9217C2.40266 36.9327 2.35399 36.9776 2.3307 37C2.26497 36.9081 2 36.5188 2 36.1905C2 36.1733 2.00042 36.1571 2.00208 36.1409C2.01248 36.0245 2.06115 35.9285 2.14725 35.8565L2.17637 35.8319C2.60316 35.4739 2.75208 35.3476 2.75582 35.0715C2.76747 35.06 2.80449 35.0256 2.83028 35Z" fill="#FFFFFE"/>
<path fill-rule="evenodd" clip-rule="evenodd" d="M1.49571 27.0369C1.59974 26.9867 1.71209 26.9877 1.82913 27.04L1.85722 27.0529C2.44707 27.3199 2.65514 27.411 2.89025 27.2671C2.90637 27.2733 2.96203 27.2945 3 27.3101C2.90741 27.4653 2.47308 28.1456 2.01066 27.9718C1.42653 27.7535 1.4078 27.7617 1.18101 27.8637C1.18101 27.8637 1.1368 27.8828 1.12016 27.8911C1.10299 27.8838 1.03381 27.8575 1 27.8456C1.03225 27.724 1.19194 27.1864 1.49571 27.0369Z" fill="#FFFFFE"/>
<path fill-rule="evenodd" clip-rule="evenodd" d="M8.05665 41C8.19757 41.024 8.52154 41.2336 8.72097 41.5102C8.80243 41.6225 8.89419 41.7885 8.89419 41.9684C8.89419 41.9879 8.89279 42.0075 8.89045 42.0271C8.86423 42.2545 8.84972 42.3864 8.84972 42.4758C8.84972 42.5881 8.87266 42.6339 8.92369 42.7194C8.92369 42.7194 8.99064 42.8401 9 42.858C8.99766 42.8764 8.98736 42.9614 8.98268 42.9999C8.86236 43.001 8.28043 42.9943 8.07303 42.6954C8.02434 42.6255 8 42.5423 8 42.4484C8 42.4115 8.00421 42.3724 8.0117 42.3316L8.03605 42.2087C8.09644 41.8997 8.14092 41.6739 8.14092 41.4945C8.14092 41.3504 8.11142 41.238 8.03933 41.1369C8.04213 41.1179 8.0515 41.0419 8.05665 41Z" fill="#FFFFFE"/>
<path fill-rule="evenodd" clip-rule="evenodd" d="M26.9424 28.7776C26.898 28.7705 26.8547 28.7508 26.892 28.5793C26.9137 28.483 26.9258 28.4452 27.0245 28.4512C27.0245 28.4512 28.2077 28.4346 29.3787 28.6908C29.5485 28.7281 29.7662 28.7776 30 28.8305C29.9879 28.0997 29.8982 27.3885 29.7375 26.7045C29.2532 26.5704 28.122 26.2612 27.5687 26.1547C26.7252 25.9913 25.2599 25.8819 25.2599 25.8819C25.2155 25.8753 25.1702 25.8572 25.1979 25.6862C25.2155 25.5863 25.2291 25.549 25.3239 25.548C25.3239 25.548 26.507 25.5192 27.6891 25.7074C28.1774 25.7865 29.029 25.9611 29.5667 26.072C29.3475 25.3558 29.0502 24.6744 28.6843 24.0358C28.1311 23.8774 27.3258 23.6545 26.8864 23.5652C26.0444 23.3907 24.5549 23.2893 24.5549 23.2893C24.5101 23.2823 24.4647 23.2686 24.495 23.0946C24.5121 22.9948 24.5297 22.96 24.6225 22.9589C24.6225 22.9589 25.8509 22.8959 27.0316 23.0992C27.346 23.1536 27.8131 23.2495 28.2485 23.3433C27.7683 22.6442 27.2014 22.0092 26.5635 21.4533C26.1573 21.3424 25.7436 21.236 25.4705 21.18C24.63 21.006 23.1657 20.8541 23.1657 20.8541C23.1214 20.8471 23.077 20.8309 23.1068 20.6574C23.1254 20.5606 23.1461 20.5197 23.2332 20.5227C23.2332 20.5227 24.3463 20.4577 25.4902 20.6398C23.914 19.6038 22.0284 19 20.0013 19C18.5631 19 17.1956 19.3031 15.96 19.8499L16.1959 20.1218C16.475 20.0658 18.1867 19.691 18.3248 19.6602C18.3863 19.6456 18.408 19.6602 18.4735 19.6935C18.5158 19.7182 18.5178 19.7182 18.5828 19.7162C19.0413 19.6703 19.6682 19.63 19.8526 19.6118C19.9096 19.635 20.2084 19.7525 20.29 19.806C20.297 19.8111 20.3222 19.8544 20.296 19.867C20.2295 19.8902 19.1814 20.3649 19.1477 20.4471C19.1013 20.5505 19.1824 20.7346 19.2288 20.7447C19.5291 20.896 19.8566 21.0524 20.0441 21.1391C20.1136 21.1719 20.1746 21.2496 20.554 21.5951C20.614 21.6415 20.6679 21.6122 20.7107 21.5976C20.7531 21.5784 20.7742 21.5668 20.7858 21.5542C20.7818 21.5446 20.7057 21.4508 20.7057 21.4256C20.7057 21.411 20.7153 21.3989 20.7435 21.3888L21.1587 21.1976C21.1884 21.182 21.2146 21.1578 21.1859 21.0892C21.1068 20.899 20.9345 20.5298 20.9113 20.4799C20.9566 20.4698 21.0418 20.4466 21.1229 20.4269C21.2242 20.4027 21.3492 20.4622 21.391 20.4839C21.7367 20.6645 23.1047 21.3837 23.0896 21.3923C23.0538 21.4125 22.8014 21.5371 22.7293 21.5643C22.6296 21.5522 22.5938 21.5351 22.5651 21.5522L21.1884 22.9156C20.9617 23.1249 21.2469 23.3019 21.0796 23.5047C21.0564 23.5395 21.0302 23.5698 20.9808 23.6182C20.9143 23.708 20.6785 23.9324 20.5183 24.1246C20.4805 24.167 20.4749 24.1866 20.4548 24.225C20.4265 24.2794 20.4245 24.4575 20.5329 24.63C20.6775 24.8625 20.8438 25.154 20.9637 25.3835C21.0262 25.498 21.002 25.7926 20.9914 25.8335C20.9773 25.895 20.9365 25.9853 20.8725 26.0049C20.6961 26.0014 20.5057 25.8466 20.4613 25.7951C20.4457 25.7754 20.355 25.6367 20.222 25.4269C20.2053 25.4012 20.2084 25.2948 20.1872 25.269C20.1454 25.2211 19.9781 24.9856 19.9196 24.9493C19.7801 24.8635 19.2812 25.0093 19.0741 25.0643C18.9758 25.0189 18.9547 25.0093 18.9053 24.9856C18.4452 25.0859 18.288 25.1419 18.0714 25.2584C17.9227 25.3275 17.9282 25.7608 17.9111 26.1164C17.9353 26.6798 18.0708 27.0808 18.1132 27.1903C18.1626 27.1913 18.9295 27.1872 18.9784 27.0808C19.0625 26.8977 19.0953 26.8442 19.1593 26.8286C19.255 26.7973 19.3865 26.814 19.5684 26.8286C19.5331 26.9497 19.4979 27.0798 19.45 27.2493C19.4273 27.3577 19.4112 27.4621 19.5614 27.4818C19.6904 27.4899 19.7624 27.4919 19.8894 27.5015C19.9242 27.62 19.9917 27.854 20.038 28.0089C20.0642 28.1703 20.6205 28.0038 20.6951 27.9862C20.8145 27.9635 21.1073 27.9191 21.1753 27.7703C21.3461 27.4258 21.4323 27.39 21.7835 27.4001C21.8994 27.39 23.0453 27.4157 23.4257 27.5615C23.7124 27.6709 25.4156 28.6858 25.6 28.8245C26.0087 29.1271 25.9719 29.116 26.0248 29.34C26.048 29.3874 26.1427 29.4736 26.305 29.5952C26.4143 29.5341 26.5483 29.5922 26.6385 29.6365C26.8219 29.7152 27.4876 30.3386 27.5743 30.4451C27.6362 30.5101 27.7718 30.6372 27.6992 30.7633L26.3019 32.7895C26.1346 33.0311 25.7849 33.1935 25.7104 33.1839L24.7333 34.5806C24.69 34.635 24.494 34.6249 24.4108 34.6587L22.5943 37.277C22.1589 37.1146 22.1262 36.7176 22.4154 35.5384C22.364 35.4784 22.304 35.3502 22.3282 35.2675C22.4739 34.3273 22.6346 33.4361 22.7051 33.0628C22.7495 32.4172 22.5207 32.3456 22.1025 32.1227C20.9199 31.5739 20.9985 31.4261 20.6866 30.6579C20.6593 30.6246 20.6488 30.5444 20.6583 30.4905C20.6891 30.2009 21.1028 29.3011 21.0111 29.0868C20.9849 29.0237 20.808 28.7054 20.7551 28.6444C20.6795 28.5824 20.6583 28.541 20.4921 28.5597C20.2356 28.6091 20.1736 28.6308 19.8808 28.6641C19.6531 28.6858 19.646 28.5506 19.6163 28.3791C19.5956 28.2248 19.6188 28.1763 19.4606 28.1007C19.2877 28.0119 19.059 27.9373 18.6901 27.8061C18.3989 27.7027 18.3727 27.789 18.2638 27.8475C17.9595 27.731 17.2913 27.4939 16.8182 27.3123C16.4891 27.2306 16.5839 26.7646 16.3496 26.4907L15.6305 25.6181C15.5111 25.4784 15.2455 25.5626 15.1971 25.6367C15.238 25.6947 15.827 26.6722 15.8729 26.7519C15.819 26.7767 15.6501 26.8614 15.5892 26.8513C15.5337 26.8422 15.4944 26.8049 15.4375 26.757C14.9034 26.1648 13.6764 25.1223 13.5046 24.9392C13.3801 24.7995 13.4043 24.6396 13.2284 23.8053C13.0914 23.1541 13.3453 22.9327 13.6109 22.5312C13.6401 22.4641 13.6603 22.446 13.6436 22.3885C13.6225 22.3244 13.6457 22.2019 13.6436 22.1787L13.5479 21.3595C12.9568 21.8594 12.4247 22.4268 11.9632 23.0487C12.4605 23.0407 12.8006 23.0669 12.8006 23.0669C12.8964 23.0739 12.9095 23.1037 12.9271 23.2026C12.9578 23.3766 12.9125 23.3907 12.8682 23.3983C12.8682 23.3983 12.2191 23.5324 11.5369 23.6732C11.1438 24.2971 10.8168 24.9669 10.5669 25.6731C10.6959 25.6473 10.8153 25.6256 10.9171 25.608C12.0982 25.4032 13.2808 25.5016 13.2808 25.5016C13.3821 25.5056 13.3907 25.5384 13.4078 25.6357C13.4381 25.8092 13.3932 25.8269 13.3484 25.8335C13.3484 25.8335 11.8841 25.9616 11.0436 26.1361C10.8652 26.1714 10.6268 26.2309 10.3704 26.298C10.1764 26.9905 10.0544 27.7133 10.0146 28.4583C10.5069 28.3645 11.5595 28.1683 12.1244 28.0886C13.3096 27.9221 14.4862 28.0275 14.4862 28.0275C14.5864 28.0366 14.5935 28.0669 14.6081 28.1662C14.6318 28.3408 14.5874 28.3539 14.5431 28.3594C14.5431 28.3594 13.0748 28.3695 12.2277 28.5163C11.6533 28.6157 10.4555 28.9183 10 29.0353C10.003 29.7662 10.0847 30.4779 10.2358 31.1633C10.7689 31.064 11.6845 30.8985 12.198 30.8274C13.3841 30.665 14.5673 30.7643 14.5673 30.7643C14.6711 30.7694 14.6756 30.8087 14.6892 30.9051C14.7144 31.0786 14.6676 31.0932 14.6222 31.0983C14.6222 31.0983 13.1589 31.125 12.3129 31.2697C11.7994 31.3575 10.8652 31.585 10.3724 31.7081C10.5976 32.511 10.9201 33.2727 11.3273 33.9798C11.8322 33.885 12.4383 33.7771 12.8208 33.7206C14.0049 33.5491 15.1891 33.6489 15.1891 33.6489C15.308 33.6555 15.2964 33.6893 15.312 33.7877C15.3362 33.9602 15.2929 33.9768 15.248 33.9808C15.248 33.9808 13.7802 34.0469 12.9347 34.1967C12.6162 34.2527 12.1083 34.3717 11.6402 34.4882C12.1713 35.2948 12.8163 36.0211 13.5524 36.6435C13.748 36.6052 13.9294 36.5719 14.077 36.5482C15.2596 36.3626 16.4392 36.4655 16.4392 36.4655C16.5194 36.4695 16.5486 36.4902 16.5627 36.6042C16.5899 36.7746 16.5451 36.7913 16.5012 36.7983C16.5012 36.7983 15.0319 36.9431 14.1884 37.1015C14.1758 37.1035 14.1616 37.1065 14.1491 37.1096C15.7948 38.2984 17.8159 39 20.0013 39C22.0531 39 23.9593 38.3816 25.5461 37.3214C24.7031 37.1302 23.522 36.9401 23.522 36.9401C23.4786 36.93 23.4353 36.9103 23.4731 36.7429C23.4942 36.6435 23.5119 36.6082 23.6041 36.6112C23.6041 36.6112 24.7887 36.5825 25.9573 36.8397C26.0172 36.8523 26.0827 36.8674 26.1523 36.8851C26.9182 36.2859 27.5954 35.5777 28.1593 34.7848C27.3289 34.5589 25.8857 34.2961 25.8857 34.2961C25.8414 34.287 25.799 34.2673 25.8394 34.0968C25.8625 33.9985 25.8948 33.9662 25.9729 33.9697C25.9729 33.9697 27.157 33.9788 28.3215 34.2517C28.3729 34.2643 28.4289 34.2774 28.4873 34.292C28.9217 33.5975 29.2729 32.846 29.5279 32.05C28.7866 31.8639 28.0091 31.6864 28.0091 31.6864C27.9653 31.6768 27.9219 31.6571 27.9643 31.4866C27.9885 31.3898 28.0026 31.3661 28.0998 31.3595C28.0998 31.3595 28.8179 31.3661 29.6846 31.5033C29.8584 30.8304 29.9642 30.1298 29.9935 29.4096C29.7032 29.3193 29.4306 29.2381 29.2316 29.1881C28.4001 28.9783 26.9424 28.7776 26.9424 28.7776Z" fill="#FFFFFE"/>
<path fill-rule="evenodd" clip-rule="evenodd" d="M3.20644 25.5292C3.47049 25.5496 3.51782 25.5539 3.94269 25.8794C4.09039 25.9931 4.30767 26.0065 4.46393 25.9979C4.57057 25.9931 4.68178 25.974 4.78842 25.9471C4.85743 25.8386 4.92814 25.7301 5 25.6225C4.79013 25.5752 4.62133 25.4224 4.29626 25.1256L4.27573 25.1074C4.2016 25.0384 4.10978 25.0036 3.99515 25.0002C3.6085 24.9911 3.11007 25.3556 3 25.4393C3.02851 25.4632 3.08611 25.5096 3.09809 25.5201C3.11805 25.5218 3.20644 25.5292 3.20644 25.5292Z" fill="#FFFFFE"/>
<path fill-rule="evenodd" clip-rule="evenodd" d="M11 42C11.1702 42.131 11.329 42.3675 11.5598 42.7123L11.6161 42.7967C11.697 42.9196 11.8031 42.9851 11.938 42.9975C12.3497 43.0381 12.8903 42.5672 13 42.4671C12.997 42.4639 12.9934 42.4595 12.9898 42.4541C12.3168 42.3275 11.6509 42.1732 11 42Z" fill="#FFFFFE"/>
<path fill-rule="evenodd" clip-rule="evenodd" d="M41.5963 19.3992C41.0316 18.1821 39.9785 17.3318 38.8029 17C38.8104 17.0699 38.815 17.1412 38.815 17.2145C38.815 17.3768 38.7954 17.5429 38.7547 17.6909C38.7547 17.6904 38.7547 17.6914 38.7547 17.6909L38.8471 17.8053C38.8853 17.8522 39.1747 18.2195 39.2103 18.6379C39.6715 18.9448 40.0649 19.3886 40.3207 19.9397C40.9818 21.3646 40.4704 22.9603 39.1792 23.5047C38.1518 23.9366 36.941 23.5727 36.1552 22.6884C36.2045 22.5486 36.2321 22.3997 36.2321 22.2441C36.2321 21.682 35.8814 21.1979 35.3775 20.9796C35.3318 20.6028 35.3604 20.2332 35.4559 19.8909C35.4504 19.8478 35.4463 19.8052 35.4463 19.7616C35.4463 19.7085 35.4509 19.6558 35.4604 19.6026C35.4614 19.5988 35.4624 19.5955 35.4634 19.5916L35.3328 19.4092C35.2419 19.2823 34.7997 18.6264 34.9781 18.1136C34.9871 18.0873 34.9977 18.061 35.0103 18.0356L34.9876 17.9983C34.23 18.8007 33.8608 19.9244 33.9818 21.0782C33.8286 21.1735 33.695 21.2942 33.589 21.4354L32.8218 21.75L31.4055 18.8462L29 19.91L29.7074 21.3612C29.7476 21.3866 29.7858 21.4148 29.8209 21.4469L30.0194 21.4656C30.1736 21.4799 30.9584 21.5728 31.2809 21.9927C31.2985 22.0152 31.3141 22.0387 31.3281 22.0626L31.4306 22.0722C31.5718 22.0861 32.2917 22.1761 32.5917 22.6012C32.6002 22.6142 32.6073 22.6276 32.6153 22.6396L32.7203 22.6573C32.7952 22.6688 33.4232 22.7808 33.7472 23.1743L33.9567 23.1911C34.1813 23.2098 34.5089 23.396 34.7641 23.6325C34.7676 23.6325 34.7706 23.6335 34.7741 23.6335C34.8962 23.6335 35.0148 23.6187 35.1278 23.5914C35.1771 23.645 35.2273 23.6962 35.2785 23.7465C35.3283 23.7963 35.379 23.8442 35.4308 23.8896C35.4313 23.8906 35.4323 23.8906 35.4328 23.8916C35.588 24.0309 35.7523 24.1592 35.9236 24.2741C35.9256 24.2751 35.9276 24.277 35.9296 24.2779C36.0995 24.3919 36.2768 24.4929 36.4592 24.581C36.4627 24.5829 36.4662 24.5848 36.4697 24.5863C36.6516 24.6734 36.839 24.7471 37.0294 24.8079C37.0334 24.8089 37.0375 24.8099 37.0415 24.8108C37.1023 24.8304 37.1636 24.8482 37.2253 24.8644C37.2279 24.8654 37.2304 24.8659 37.2329 24.8659C37.3625 24.9008 37.4926 24.9276 37.6243 24.9492C37.6273 24.9492 37.6298 24.9501 37.6328 24.9501C37.6951 24.9607 37.7569 24.9679 37.8197 24.9755C37.8247 24.9765 37.8297 24.9765 37.8348 24.9774C37.9669 24.9913 38.0995 24.999 38.2332 25C38.7396 25.0028 39.2485 24.908 39.7333 24.7045C41.7309 23.8628 42.5649 21.4881 41.5963 19.3992Z" fill="#FFFFFE"/>
<path fill-rule="evenodd" clip-rule="evenodd" d="M35.7556 26.9934C35.7319 26.9407 35.5989 26.9522 35.4587 27.0199L34.5962 27.4354C34.5962 27.4354 34.5561 27.3561 34.5382 27.309C34.4981 27.2196 34.4855 27.0054 34.9313 26.7987L35.1773 26.6778L34.6731 25.5519C34.4546 25.5383 33.7898 25.4635 33.4876 25.0632L33.2744 25.014C33.2106 24.9994 32.6821 24.869 32.3945 24.4877L32.0744 24.3602C31.7906 24.2478 31.398 24.0105 31.1897 23.6723L31.076 23.6743C30.7705 23.6794 30.3895 23.4942 30.125 23.2188L29.8891 23.2454C29.6938 23.2674 29.3916 23.1646 29.1233 23L29 23.0552C29.4366 23.7887 29.7881 24.5835 30.0395 25.4254L31.4923 24.7345L33.0385 28.187L32.9901 28.2106C32.8499 28.2783 32.7556 28.3762 32.7793 28.4293L33.0201 28.9662C33.0438 29.0199 33.1767 29.0083 33.3169 28.9406L35.7856 27.749C35.9258 27.6812 36.02 27.5844 35.9964 27.5307L35.7556 26.9934Z" fill="#FFFFFE"/>
<path fill-rule="evenodd" clip-rule="evenodd" d="M29.8374 21.2146C29.8952 21.294 29.9239 21.3966 29.9239 21.5207C29.9239 21.5422 29.9231 21.5649 29.921 21.5876L29.9106 21.7236C29.8902 21.9772 29.874 22.1789 29.874 22.3424C29.874 22.5698 29.9064 22.7261 30 22.8508C29.9996 22.8705 29.9975 22.957 29.9963 23C29.8678 22.9952 29.5609 22.8198 29.3609 22.5572C29.2732 22.4415 29.1692 22.2601 29.1692 22.0476C29.1692 22.0441 29.1692 22.0411 29.1692 22.0381C29.1709 21.9265 29.1721 21.8364 29.1721 21.7624C29.1721 21.4718 29.1547 21.4306 29.079 21.3113C29.079 21.3113 29.0096 21.1937 29 21.1776C29.0004 21.1579 29.0021 21.0648 29.0029 21.0243C29.1081 21.0052 29.6279 20.9264 29.8374 21.2146Z" fill="#FFFFFE"/>
<path fill-rule="evenodd" clip-rule="evenodd" d="M30.0185 22C30.1512 22.019 30.7346 22.1204 30.931 22.4289C30.9733 22.4955 30.9947 22.5666 30.9947 22.6445C30.9947 22.6725 30.9917 22.7004 30.9864 22.7307L30.9825 22.7497C30.9217 23.0801 30.8799 23.3035 30.8799 23.4759C30.8799 23.6321 30.9159 23.7469 31 23.8611C30.9976 23.8807 30.9864 23.9602 30.9806 24C30.771 23.9899 30.4774 23.8119 30.298 23.5812C30.2173 23.477 30.1264 23.3203 30.1264 23.14C30.1264 23.1215 30.1274 23.1019 30.1293 23.0823C30.1517 22.8746 30.1633 22.7357 30.1633 22.6321C30.1633 22.4502 30.1274 22.3763 30.0501 22.2335C30.0501 22.2335 30.0088 22.1562 30 22.14C30.0024 22.1221 30.0131 22.0409 30.0185 22Z" fill="#FFFFFE"/>
<path fill-rule="evenodd" clip-rule="evenodd" d="M32.0315 22C32.1611 22.0178 32.737 22.1091 32.9344 22.4025C32.9783 22.4668 33 22.5381 33 22.6153C33 22.658 32.9935 22.7034 32.9794 22.7499L32.9718 22.7753C32.8552 23.1642 32.7836 23.403 32.7836 23.5791C32.7836 23.6996 32.8178 23.7909 32.8921 23.8817C32.8872 23.9011 32.8726 23.96 32.8628 24C32.7023 23.9314 32.0271 23.618 32.0271 23.1653C32.0271 23.1329 32.0309 23.0978 32.0385 23.0632C32.1095 22.759 32.1437 22.597 32.1437 22.4846C32.1437 22.369 32.1074 22.3052 32.0374 22.1923C32.0374 22.1923 32.0103 22.148 32 22.1318C32.0043 22.1129 32.0228 22.0373 32.0315 22Z" fill="#FFFFFE"/>
<path fill-rule="evenodd" clip-rule="evenodd" d="M33.0634 23C33.1864 23.0239 33.7187 23.145 33.9217 23.4595C33.9735 23.5402 34 23.6284 34 23.724C34 23.7809 33.9906 23.8414 33.9713 23.9025L33.9482 23.978C33.8483 24.2999 33.7887 24.4927 33.7887 24.6329C33.7887 24.7296 33.8207 24.7997 33.8831 24.8693C33.8759 24.89 33.8483 24.9649 33.8356 25C33.7159 24.9703 33.2565 24.8385 33.0745 24.5479C33.0248 24.4677 33 24.3817 33 24.2903C33 24.2398 33.0072 24.1878 33.0226 24.1347L33.0877 23.9131C33.1429 23.7293 33.1804 23.6045 33.1804 23.4956C33.1804 23.3756 33.1329 23.2725 33.0154 23.1286C33.0237 23.1068 33.0513 23.0329 33.0634 23Z" fill="#FFFFFE"/>
<path fill-rule="evenodd" clip-rule="evenodd" d="M34.1505 23C34.2953 23.0345 34.617 23.2687 34.8039 23.553C34.873 23.6582 34.9482 23.8104 34.9482 23.9695C34.9482 23.9987 34.9458 24.0283 34.9401 24.058C34.8921 24.3083 34.8696 24.4384 34.8696 24.5247C34.8696 24.6088 34.8912 24.652 34.9319 24.727C34.9319 24.727 34.9914 24.8473 35 24.864C34.9962 24.8818 34.9799 24.9639 34.9732 25C34.8485 24.9903 34.2502 24.9315 34.0585 24.6245C34.0192 24.5624 34 24.4929 34 24.4162C34 24.3709 34.0067 24.3234 34.0206 24.2738L34.0513 24.1643C34.1438 23.8363 34.2076 23.608 34.2076 23.4268C34.2076 23.3151 34.1812 23.2223 34.1242 23.1338C34.1275 23.1165 34.1429 23.0399 34.1505 23Z" fill="#FFFFFE"/>
<path fill-rule="evenodd" clip-rule="evenodd" d="M37 25C37.0348 25.1423 37.0706 25.3133 37.1129 25.5144L37.144 25.6637C37.1795 25.8319 37.2372 25.9384 37.3149 25.9798C37.5561 26.1059 37.9258 25.6048 38 25.499C37.9979 25.4913 37.9946 25.4801 37.9918 25.4675C37.6528 25.4212 37.3182 25.26 37 25Z" fill="#FFFFFE"/>
<path fill-rule="evenodd" clip-rule="evenodd" d="M36.919 25.6536C36.8253 25.5112 36.8203 25.481 36.8038 24.9249C36.5271 24.6782 36.2676 24.3675 36.0326 24.0025C36.0207 24.0012 36.0096 24 36 24C36.0008 24.0456 36.0027 24.1375 36.0031 24.1578C36.1148 24.3021 36.1443 24.505 36.1443 24.8336C36.1443 24.9674 36.1397 25.1228 36.134 25.304L36.1297 25.4514C36.1294 25.4619 36.1294 25.4717 36.1294 25.481C36.1294 25.6271 36.1608 25.7437 36.223 25.8281C36.4276 26.1037 36.9029 25.9724 37 25.9428C36.9992 25.9003 36.9969 25.8028 36.9965 25.7813C36.9869 25.7659 36.919 25.6536 36.919 25.6536Z" fill="#FFFFFE"/>
<path fill-rule="evenodd" clip-rule="evenodd" d="M29 22C28.984 21.9167 28.9751 21.8185 28.9652 21.7039L28.9254 21.326C28.9077 21.2054 28.8441 21.1174 28.7363 21.0644C28.5445 20.9699 28.2449 20.995 28 21.0411C28.3577 21.3418 28.6921 21.6621 29 22Z" fill="#FFFFFE"/>
<path fill-rule="evenodd" clip-rule="evenodd" d="M38.8027 21C38.8427 21.1092 39 21.5625 39 21.9256C39 21.9997 38.9935 22.0692 38.9782 22.1319C38.9488 22.2525 38.8881 22.3358 38.7976 22.3778L38.7173 22.4151C38.3612 22.5777 38.1799 22.6633 38.1137 22.9494C38.1021 22.9563 38.0545 22.9845 38.0294 23C38.0116 22.9282 38 22.8024 38 22.6518C38 22.4565 38.0185 22.2221 38.0643 22.0215C38.0996 21.8653 38.1675 21.663 38.2892 21.5878C38.6014 21.3924 38.6156 21.3781 38.6675 21.2017C38.6675 21.2017 38.7104 21.0701 38.7162 21.0517C38.7275 21.0448 38.7798 21.0132 38.8027 21Z" fill="#FFFFFE"/>
<path fill-rule="evenodd" clip-rule="evenodd" d="M39.7207 20C39.7726 20.0989 40 20.5517 40 20.9079C40 20.9495 39.9969 20.9895 39.9901 21.0278C39.9683 21.1462 39.9115 21.2337 39.8203 21.2883L39.7409 21.3353C39.3812 21.5499 39.1976 21.6606 39.1507 21.9389C39.1393 21.947 39.0931 21.9811 39.0675 22C39.0305 21.9044 39 21.6904 39 21.4531C39 21.3288 39.0084 21.1997 39.0282 21.0808C39.0534 20.9289 39.1087 20.7285 39.2297 20.6371C39.5403 20.401 39.554 20.3848 39.5948 20.2113C39.5948 20.2113 39.6295 20.0816 39.6341 20.0632C39.6456 20.0551 39.6978 20.0168 39.7207 20Z" fill="#FFFFFE"/>
<path fill-rule="evenodd" clip-rule="evenodd" d="M38.843 22.0152C38.8335 22.0324 38.7633 22.1618 38.7633 22.1618C38.6749 22.336 38.657 22.3457 38.2922 22.4049C38.1681 22.4235 38.0682 22.5764 38 22.721C38.0353 22.7492 38.0706 22.7761 38.1063 22.8002C38.4021 22.9978 38.7082 23.0495 38.9944 22.9524C38.998 22.889 39 22.8236 39 22.7589C39 22.4263 38.958 22.1012 38.9437 22C38.9171 22.0041 38.8565 22.0138 38.843 22.0152Z" fill="#FFFFFE"/>
<path fill-rule="evenodd" clip-rule="evenodd" d="M40 22C39.9271 22.0674 39.8468 22.0916 39.6311 22.1558L39.408 22.2233C39.2414 22.2745 39.1463 22.415 39.0957 22.5236C39.0278 22.6706 39 22.8442 39 22.9851C39 22.9907 39.0005 22.9956 39.0005 23C39.4923 22.8022 39.8364 22.4384 40 22Z" fill="#FFFFFE"/>
<path fill-rule="evenodd" clip-rule="evenodd" d="M36.8122 18C36.8542 18.0867 37 18.4082 37 18.7148C37 18.7539 36.9976 18.7935 36.9921 18.832C36.9721 18.9754 36.9124 19.091 36.8153 19.176L36.6711 19.3002C36.42 19.5142 36.3415 19.5832 36.325 19.9342C36.3096 19.9454 36.2585 19.9829 36.2354 20C36.1859 19.9096 36 19.5447 36 19.2055C36 19.1691 36.002 19.1343 36.0067 19.0995C36.0259 18.9486 36.09 18.8256 36.1976 18.7357L36.2511 18.6913C36.6071 18.3938 36.721 18.2975 36.7242 18.0653C36.7403 18.053 36.7882 18.0177 36.8122 18Z" fill="#FFFFFE"/>
<path fill-rule="evenodd" clip-rule="evenodd" d="M36.9573 17C36.9822 17.0826 37 17.2428 37 17.4309C37 17.6001 36.9863 17.7882 36.9522 17.9539C36.9206 18.1069 36.8576 18.3078 36.7359 18.3905C36.4199 18.6054 36.4088 18.6232 36.3631 18.7924C36.3631 18.7924 36.3242 18.9235 36.3186 18.9419C36.3071 18.9498 36.2541 18.9844 36.2311 19C36.1858 18.8945 36 18.439 36 18.079C36 18.0198 36.0052 17.9634 36.0163 17.9121C36.043 17.791 36.1005 17.7089 36.1929 17.6609L36.2752 17.6185C36.632 17.4332 36.8142 17.3371 36.8731 17.0564C36.8846 17.0486 36.9321 17.0167 36.9573 17Z" fill="#FFFFFE"/>
<path fill-rule="evenodd" clip-rule="evenodd" d="M38.7893 18C38.8359 18.086 39 18.411 39 18.7212C39 18.7507 38.9984 18.7808 38.9952 18.8103C38.9789 18.9533 38.9219 19.0699 38.8256 19.1591L38.6826 19.2888C38.4345 19.512 38.3568 19.5832 38.3501 19.9304C38.3345 19.9425 38.2843 19.9821 38.2612 20C38.2067 19.9103 38 19.5447 38 19.2039C38 19.177 38.0016 19.1506 38.0044 19.1242C38.0195 18.9739 38.0812 18.8499 38.188 18.756L38.2413 18.7085C38.5882 18.4025 38.7029 18.3012 38.7029 18.0781C38.7029 18.0749 38.7025 18.0717 38.7025 18.0686C38.7192 18.0554 38.7658 18.0185 38.7893 18Z" fill="#FFFFFE"/>
<path fill-rule="evenodd" clip-rule="evenodd" d="M39.6114 19C39.6819 19.0916 40 19.5224 40 19.8693C40 19.8846 39.9996 19.9 39.9984 19.9158C39.988 20.0315 39.9392 20.121 39.8487 20.1901L39.7675 20.2525C39.4186 20.5191 39.2405 20.6572 39.2197 20.9258C39.2085 20.9366 39.1629 20.978 39.1389 21C39.074 20.8869 39 20.5672 39 20.2632C39 20.2228 39.0012 20.1824 39.0044 20.1435C39.0148 19.9962 39.052 19.7987 39.1681 19.6902C39.4702 19.4078 39.4794 19.3883 39.5026 19.2236C39.5026 19.2236 39.5246 19.0952 39.5278 19.0767C39.5386 19.067 39.5894 19.0205 39.6114 19Z" fill="#FFFFFE"/>
<path fill-rule="evenodd" clip-rule="evenodd" d="M37.6383 20C37.7044 20.0941 38 20.5322 38 20.8792C38 20.9004 37.9988 20.9211 37.9964 20.9418C37.9834 21.0587 37.9327 21.1471 37.8413 21.2133L37.7598 21.2723C37.4076 21.5268 37.2283 21.6581 37.2006 21.9286C37.1892 21.9385 37.1425 21.9788 37.1179 22C37.0605 21.8898 37 21.593 37 21.3013C37 21.2439 37.0024 21.1854 37.0079 21.129C37.0222 20.9811 37.0637 20.7825 37.182 20.6775C37.4836 20.4096 37.4962 20.3926 37.5247 20.2214C37.5247 20.2214 37.5497 20.0921 37.5532 20.074C37.5643 20.0641 37.6161 20.0197 37.6383 20Z" fill="#FFFFFE"/>
<path fill-rule="evenodd" clip-rule="evenodd" d="M37 16.7413C37 16.523 37.0833 16.276 37.2485 16.1515C37.3427 16.0808 37.4437 16.0527 37.5252 16.0299L37.5927 16.0102C37.6663 15.9862 37.7755 16.0055 37.8585 16.0581C37.9193 16.0968 37.9602 16.1494 37.9733 16.2058C37.9891 16.2714 38 16.3202 38 16.3593C38 16.4418 37.9504 16.4788 37.7924 16.5347L37.7744 16.5411C37.3667 16.6858 37.2098 16.7426 37.1381 16.963C37.1258 16.9676 37.0773 16.9886 37.0514 17C37.0184 16.9276 37 16.8385 37 16.7413Z" fill="#FFFFFE"/>
<path fill-rule="evenodd" clip-rule="evenodd" d="M36 16.7417C36 16.5237 36.0837 16.2759 36.2488 16.1517C36.3426 16.0811 36.4439 16.0524 36.525 16.0301L36.5929 16.0104C36.666 15.986 36.7752 16.0057 36.8582 16.0583C36.9189 16.097 36.9599 16.1492 36.973 16.2056C36.9891 16.2712 37 16.3205 37 16.3592C37 16.4421 36.9505 16.4791 36.7925 16.5351L36.7745 16.5418C36.3666 16.6861 36.2098 16.7429 36.1385 16.963C36.1261 16.9684 36.0773 16.9895 36.0518 17C36.0184 16.928 36 16.8384 36 16.7417Z" fill="#FFFFFE"/>
<mask id="mask2_4_220" style="mask-type:luminance" maskUnits="userSpaceOnUse" x="0" y="16" width="39" height="22">
<path d="M0.0299988 16.424H38.644V37.7233H0.0299988V16.424Z" fill="white"/>
</mask>
<g mask="url(#mask2_4_220)">
<path fill-rule="evenodd" clip-rule="evenodd" d="M38.5685 16.424C38.611 16.5075 38.644 16.6845 38.644 16.8855C38.644 17.015 38.6305 17.152 38.598 17.277C38.561 17.4165 38.4835 17.5995 38.323 17.6805C37.911 17.888 37.893 17.9025 37.8355 18.061C37.8355 18.061 37.788 18.181 37.781 18.1975C37.766 18.205 37.696 18.2395 37.6655 18.2545C37.6 18.162 37.3195 17.7455 37.3195 17.418C37.3195 17.3745 37.3245 17.3325 37.3355 17.293C37.3665 17.185 37.4435 17.1055 37.5645 17.0585L37.6735 17.0155C38.147 16.8295 38.3885 16.7335 38.4575 16.4785C38.4725 16.471 38.5345 16.4405 38.5685 16.424Z" fill="#FFFFFE"/>
</g>
<mask id="mask3_4_220" style="mask-type:luminance" maskUnits="userSpaceOnUse" x="0" y="16" width="39" height="22">
<path d="M0.0299988 16.424H38.644V37.7233H0.0299988V16.424Z" fill="white"/>
</mask>
<g mask="url(#mask3_4_220)">
<path fill-rule="evenodd" clip-rule="evenodd" d="M1.32701 36.3525C1.30851 36.3285 1.27351 36.2805 1.23251 36.215C0.978006 36.504 0.714006 36.7855 0.546506 36.96C0.417506 37.097 -0.0839937 37.42 0.0125063 37.6175C0.0940063 37.8225 0.670006 37.667 0.858006 37.6635C1.12601 37.6555 1.57051 37.6485 1.99551 37.6575C1.86751 37.5185 1.47251 37.05 1.49101 36.5705L1.32701 36.3525Z" fill="#FFFFFE"/>
</g>
<path fill-rule="evenodd" clip-rule="evenodd" d="M4.1812 24.5414C4.32535 24.5898 4.33981 24.6071 4.54135 25C4.69047 24.6921 4.8432 24.3936 5 24.107C4.95843 24.0591 4.90782 24.026 4.84862 24.0106C4.5427 23.9326 4.08947 24.3072 4 24.3833C4.01491 24.4124 4.04925 24.4796 4.05648 24.4945C4.07185 24.4999 4.1812 24.5414 4.1812 24.5414Z" fill="#FFFFFE"/>
<path fill-rule="evenodd" clip-rule="evenodd" d="M7.28512 29.7103C7.45933 28.4327 7.73767 26.9913 7.94691 25.8531C7.95275 25.8225 7.9581 25.7923 7.96394 25.7616C7.96686 25.7455 7.96978 25.7294 7.9727 25.7127C7.98146 25.6654 7.99022 25.6176 7.99849 25.5708C7.99849 25.5708 7.99849 25.5697 7.99849 25.5677C7.99898 25.5526 8.00093 25.4876 7.99947 25.407C7.99801 25.3118 7.99265 25.1959 7.97514 25.1169C7.90555 24.808 7.89144 24.2412 7.65202 24.078C7.43159 23.9256 6.75812 24.0353 6.65155 24.0826C6.56006 24.1123 6.38002 24.4071 6.38002 24.4071C6.29389 24.548 6.20922 24.6915 6.12649 24.8356C5.7518 25.4855 5.4136 26.1599 5.11044 26.8411C3.9922 29.3473 3.33771 31.9243 3 33.5731C3.04769 33.7104 3.08175 33.8544 3.09976 34C3.09927 33.9969 3.09927 33.9948 3.09878 33.9927C3.15572 33.9766 3.21168 33.9631 3.26715 33.9532C3.32895 33.9418 3.38686 33.9371 3.44136 33.934L3.4871 33.8414C3.61751 33.5773 4.06812 33.2616 4.47103 33.153C4.51191 33.1415 4.55084 33.1337 4.58879 33.1265L4.6141 33.0594C4.71726 32.7833 5.1338 32.4219 5.52406 32.2685C5.61311 32.2337 5.69535 32.2123 5.77126 32.1993C5.87297 31.9128 6.18586 31.5421 6.50605 31.3424C6.55276 31.3128 6.59802 31.2884 6.6423 31.267C6.68853 30.9644 6.92259 30.5339 7.19753 30.2677C7.20434 30.2614 7.21067 30.2557 7.21699 30.2495L7.28512 29.7103Z" fill="#FFFFFE"/>
<path fill-rule="evenodd" clip-rule="evenodd" d="M8.83072 27C8.866 27.1115 9 27.5611 9 27.9274C9 28.0171 8.99216 28.1015 8.97292 28.1752C8.94084 28.2962 8.87883 28.377 8.78867 28.4136L8.70492 28.4484C8.35495 28.5923 8.17676 28.6673 8.10442 28.9528C8.09301 28.9599 8.0449 28.9864 8.02031 29C8.00748 28.9392 8 28.8425 8 28.7239C8 28.508 8.02352 28.2295 8.08054 27.9988C8.11939 27.8407 8.19102 27.6383 8.31219 27.5693C8.62331 27.3882 8.63756 27.3746 8.6928 27.1982C8.6928 27.1982 8.73806 27.0655 8.74448 27.0472C8.75588 27.0401 8.80791 27.0124 8.83072 27Z" fill="#FFFFFE"/>
<path fill-rule="evenodd" clip-rule="evenodd" d="M6.60217 31.1079C6.73099 31.037 6.92292 30.9646 7.1014 31.0191C7.55923 31.1605 7.582 31.1586 7.73513 31.092C7.73513 31.092 7.85929 31.0428 7.87636 31.036C7.89291 31.0408 7.96741 31.0654 8 31.0756C7.97724 31.1991 7.85101 31.796 7.53647 31.9586C7.43352 32.0126 7.32333 32.0136 7.19866 31.9625L7.09778 31.921C6.61045 31.7202 6.36058 31.6194 6.12157 31.7487C6.10605 31.7429 6.03621 31.7202 6 31.7091C6.05018 31.5678 6.30936 31.2681 6.60217 31.1079Z" fill="#FFFFFE"/>
<path fill-rule="evenodd" clip-rule="evenodd" d="M5.67974 32.0516C5.8148 32.0053 6.00894 31.9664 6.16634 32.0451C6.56455 32.2425 6.5864 32.2485 6.74727 32.2077C6.74727 32.2077 6.8719 32.1818 6.88928 32.1781C6.90367 32.185 6.97021 32.2188 7 32.2341C6.95432 32.3481 6.72195 32.8798 6.39523 32.9831C6.28947 33.0165 6.18222 33.0003 6.07646 32.9354L5.97617 32.8738C5.56356 32.6195 5.35204 32.4912 5.10526 32.5723C5.09037 32.5653 5.03227 32.5361 5 32.5199C5.07448 32.3953 5.37438 32.1554 5.67974 32.0516Z" fill="#FFFFFE"/>
<path fill-rule="evenodd" clip-rule="evenodd" d="M3.72267 33.0267C3.91869 32.9809 4.08278 32.9944 4.19774 33.0645C4.57455 33.2964 4.59568 33.2996 4.75387 33.2762C4.75387 33.2762 4.87964 33.2613 4.89683 33.2595C4.9101 33.2672 4.972 33.3058 5 33.3225C4.94203 33.429 4.6561 33.9221 4.324 33.9922C4.21493 34.0142 4.11471 33.9899 4.01695 33.9171L3.92017 33.8447C3.54385 33.5647 3.35028 33.4236 3.09924 33.4798C3.08696 33.4717 3.03095 33.4375 3 33.4191C3.08745 33.304 3.41071 33.0995 3.72267 33.0267Z" fill="#FFFFFE"/>
<path fill-rule="evenodd" clip-rule="evenodd" d="M8.71445 30.0785C8.71445 30.0785 8.83618 30.0102 8.85267 30C8.87201 30.0018 8.95961 30.0111 8.99829 30.0148C8.99886 30.0319 9 30.0559 9 30.0914C9 30.2932 8.96985 30.7442 8.71445 30.9243C8.61661 30.9931 8.49772 31.0148 8.3521 30.9903L8.21786 30.9677C7.65245 30.873 7.36348 30.8259 7.13936 30.9894C7.12002 30.9875 7.04152 30.9801 7 30.9764C7.01991 30.8342 7.22639 30.5041 7.50284 30.3015C7.62457 30.2119 7.81172 30.1094 8.01536 30.1283C8.54266 30.175 8.56655 30.1685 8.71445 30.0785Z" fill="#FFFFFE"/>
<path fill-rule="evenodd" clip-rule="evenodd" d="M8.93153 28C8.94958 28.0511 9 28.2092 9 28.3764C9 28.5188 8.9639 28.6668 8.83816 28.76C8.74977 28.8253 8.62341 28.8576 8.46094 28.8546L8.31839 28.8524C7.68659 28.8415 7.36352 28.8377 7.15811 28.9932C7.13943 28.994 7.04793 28.9977 7.00187 29C7.00124 28.9955 7 28.9917 7 28.9876C7 28.8629 7.1469 28.586 7.38842 28.3982C7.54528 28.2765 7.72144 28.2092 7.89698 28.2025C8.47152 28.1796 8.49891 28.1754 8.6427 28.0823C8.6427 28.0823 8.75661 28.0146 8.77218 28.0053C8.79334 28.0041 8.8892 28.0015 8.93153 28Z" fill="#FFFFFE"/>
<path fill-rule="evenodd" clip-rule="evenodd" d="M8.2016 25.956C8.13748 26.2874 8.06905 26.639 8 27C8.13625 26.856 8.35265 26.7189 8.65105 26.5283L8.77497 26.4497C8.90999 26.3623 8.9852 26.2472 8.99753 26.1057C8.99877 26.0899 9 26.0748 9 26.0591C9 25.6377 8.50986 25.1226 8.38656 25L8.2016 25.956Z" fill="#FFFFFE"/>
<path fill-rule="evenodd" clip-rule="evenodd" d="M3.28363 34.8995C3.34598 34.9784 3.41342 35.01 3.48966 34.9973C3.72314 34.9561 3.95358 34.5007 4 34.4029C3.98238 34.3832 3.94239 34.3407 3.93392 34.3311C3.92138 34.3319 3.83362 34.3363 3.83362 34.3363C3.72314 34.3473 3.70891 34.3425 3.4673 34.0856C3.37208 33.987 3.23517 33.9914 3.13724 34.012C3.09149 34.0221 3.04541 34.0374 3 34.0562L3.08844 34.3416C3.10132 34.3832 3.15147 34.5537 3.1796 34.7685C3.19417 34.7865 3.20908 34.8053 3.22467 34.825L3.28363 34.8995Z" fill="#FFFFFE"/>
<path fill-rule="evenodd" clip-rule="evenodd" d="M12.366 36C12.4743 36.0747 12.9382 36.413 12.9943 36.7424C12.9981 36.7649 13 36.7855 13 36.806C13 36.8782 12.9772 36.9439 12.932 37.0045L12.923 37.016C12.6478 37.3865 12.5128 37.5664 12.5128 37.7709C12.5128 37.812 12.5204 37.8551 12.5314 37.9002C12.5223 37.9143 12.4834 37.9719 12.4644 38C12.289 37.9013 12.1017 37.6321 12.0309 37.3724C12.0143 37.3103 12 37.2356 12 37.1574C12 37.0712 12.0171 36.981 12.0661 36.9018C12.2719 36.5679 12.3175 36.4662 12.3175 36.3338C12.3175 36.2937 12.3132 36.2496 12.308 36.196C12.308 36.196 12.3009 36.1193 12.2994 36.1028C12.3075 36.0902 12.3465 36.0306 12.366 36Z" fill="#FFFFFE"/>
<path fill-rule="evenodd" clip-rule="evenodd" d="M10.6321 34C10.7908 34.1192 10.945 34.4073 10.9881 34.6733C10.995 34.7174 11 34.767 11 34.8191C11 34.9269 10.9784 35.0431 10.9078 35.1383C10.6069 35.5401 10.6069 35.5812 10.6064 35.8121C10.6064 35.8121 10.606 35.8888 10.6055 35.9063C10.5963 35.9178 10.5537 35.9719 10.5321 36C10.4353 35.9128 10.0225 35.5266 10.0009 35.1929C10 35.1829 10 35.1743 10 35.1653C10 35.0787 10.028 35.004 10.0862 34.9384L10.0977 34.9258C10.4202 34.5626 10.5656 34.4003 10.5656 34.1733C10.5656 34.1478 10.5628 34.1192 10.5587 34.0912C10.5697 34.0782 10.611 34.0266 10.6321 34Z" fill="#FFFFFE"/>
<path fill-rule="evenodd" clip-rule="evenodd" d="M9.82623 33C9.92914 33.1491 10 33.4319 10 33.6921C10 33.7253 9.99873 33.7574 9.99663 33.789C9.9865 33.9313 9.94812 34.1246 9.82455 34.2368C9.47912 34.5475 9.46056 34.5955 9.40953 34.8309C9.40953 34.8309 9.39182 34.9094 9.38802 34.9278C9.37748 34.9373 9.32813 34.9784 9.30283 35C9.24083 34.8931 9 34.4527 9 34.114C9 34.0824 9.00211 34.0524 9.00675 34.0224C9.02235 33.9197 9.0658 33.8433 9.13792 33.7901L9.15099 33.7796C9.55926 33.4762 9.71615 33.3582 9.74272 33.0701C9.75496 33.0595 9.80135 33.0205 9.82623 33Z" fill="#FFFFFE"/>
<path fill-rule="evenodd" clip-rule="evenodd" d="M9.98277 32C9.99318 32.0552 10 32.1343 10 32.2373C10 32.4623 9.97272 32.7689 9.90847 33.0178C9.86755 33.176 9.79325 33.3783 9.67301 33.4427C9.35858 33.6143 9.34709 33.6309 9.2911 33.8044C9.2911 33.8044 9.24444 33.9375 9.23798 33.9552C9.22613 33.9614 9.17516 33.9877 9.15219 34C9.11988 33.8872 9 33.4414 9 33.073C9 32.9724 9.00897 32.878 9.03087 32.7964C9.06497 32.672 9.12563 32.5953 9.21572 32.5616L9.28643 32.5353C9.64214 32.4047 9.82376 32.3354 9.90129 32.0417C9.91278 32.0362 9.95729 32.0129 9.98277 32Z" fill="#FFFFFE"/>
<path fill-rule="evenodd" clip-rule="evenodd" d="M11.3634 35C11.466 35.0552 11.9123 35.3106 11.9889 35.6258C11.9961 35.6559 12 35.6856 12 35.7147C12 35.7923 11.9749 35.8685 11.9248 35.941L11.9065 35.9691C11.6308 36.3742 11.4978 36.5688 11.4978 36.7584C11.4978 36.8064 11.508 36.8539 11.5248 36.905C11.5157 36.9198 11.4872 36.9668 11.4675 37C11.3672 36.9019 11 36.5208 11 36.1637C11 36.084 11.0188 36.0049 11.0627 35.9303C11.2747 35.5747 11.3364 35.4582 11.3364 35.3346C11.3364 35.2845 11.3267 35.2335 11.3128 35.167C11.3128 35.167 11.3036 35.1211 11.3002 35.1032C11.3094 35.0879 11.3455 35.0291 11.3634 35Z" fill="#FFFFFE"/>
<path fill-rule="evenodd" clip-rule="evenodd" d="M9.88074 29.0774L9.82685 29.0495C9.71357 28.991 9.60928 28.9848 9.50798 29.0284C9.1991 29.1637 9.03194 29.7291 9 29.8485C9.03044 29.8614 9.0993 29.8911 9.11477 29.8979C9.13224 29.8921 9.2495 29.8537 9.2495 29.8537C9.40469 29.7967 9.42665 29.8005 9.84331 29.9707C9.89371 29.9914 9.94711 29.999 10 30C9.94561 29.6964 9.90619 29.3895 9.88074 29.0774Z" fill="#FFFFFE"/>
<path fill-rule="evenodd" clip-rule="evenodd" d="M9.9411 31.0161C9.70553 31.1744 9.40012 31.1268 8.80571 31.0302L8.67942 31.0099C8.5258 30.985 8.40134 31.0071 8.29873 31.0759C8.03097 31.2564 8 31.7092 8 31.91C8 31.9439 8.00061 31.968 8.00121 31.9854C8.04189 31.9892 8.13236 31.9981 8.1524 32C8.17061 31.9901 8.29569 31.9218 8.29569 31.9218C8.45173 31.8289 8.47662 31.8233 9.03036 31.8714C9.24347 31.8897 9.44019 31.7875 9.5677 31.6975C9.75288 31.5674 9.90771 31.385 10 31.2342C9.97936 31.1617 9.95993 31.0891 9.9411 31.0161Z" fill="#FFFFFE"/>
<path fill-rule="evenodd" clip-rule="evenodd" d="M13.7567 39C13.7823 38.9877 13.8129 38.973 13.8129 38.973C13.9188 38.921 13.9786 38.8509 13.9954 38.7575C13.9986 38.7393 14 38.7212 14 38.7022C14 38.4233 13.6685 38.0727 13.597 38C13.5706 38.0156 13.5111 38.0503 13.4981 38.0579C13.494 38.0727 13.4629 38.1749 13.4629 38.1749C13.4294 38.3071 13.4183 38.3228 13.0622 38.5349C13.039 38.5496 13.019 38.5661 13 38.5843C13.2614 38.7288 13.5158 38.869 13.7567 39Z" fill="#FFFFFE"/>
<path fill-rule="evenodd" clip-rule="evenodd" d="M12.1 38.8048C12.1827 38.8703 12.265 38.9357 12.3473 39C12.3649 38.762 12.5278 38.5772 12.8165 38.2507L12.8867 38.1704C12.9625 38.083 13 37.9879 13 37.878C13 37.8686 12.9996 37.8576 12.9991 37.8483C12.9767 37.4755 12.5489 37.0803 12.4576 37C12.4377 37.0269 12.3929 37.0858 12.383 37.0984C12.3826 37.1193 12.3796 37.2567 12.3796 37.2567C12.3796 37.265 12.3796 37.2727 12.3796 37.2804C12.3796 37.4371 12.3619 37.4733 12.1038 37.8257C12.022 37.9362 12 38.0929 12 38.2292C12 38.2655 12.0017 38.3013 12.0039 38.3343C12.0159 38.4937 12.0534 38.6597 12.1 38.8048Z" fill="#FFFFFE"/>
<path fill-rule="evenodd" clip-rule="evenodd" d="M10.0514 31.1602C10.0757 31.2565 10.0878 31.3802 10.0878 31.5176C10.0878 31.7386 10.0569 31.9921 10 32.2105C10.1646 32.4493 10.2623 32.8908 10.2403 33.2918C10.3993 33.4297 10.5408 33.6999 10.6201 34L11 33.7592C10.6154 32.9137 10.3159 31.987 10.1176 31C10.1201 31.0127 10.1223 31.0243 10.1249 31.0375C10.1014 31.0801 10.0768 31.1206 10.0514 31.1602Z" fill="#FFFFFE"/>
<mask id="mask4_4_220" style="mask-type:luminance" maskUnits="userSpaceOnUse" x="3" y="5" width="35" height="39">
<path d="M3.22572 5.99819H37.9016V44H3.22572V5.99819Z" fill="white"/>
</mask>
<g mask="url(#mask4_4_220)">
<path fill-rule="evenodd" clip-rule="evenodd" d="M37.8975 11.689C37.8975 11.689 37.927 11.5085 37.6946 11.384C37.6809 11.3765 37.6206 11.3465 37.5206 11.296C35.6175 10.4965 30.6728 7.9375 28.3867 6.7435C27.5954 6.3495 27.0891 6.097 27.0891 6.097C27.0389 6.079 26.486 5.874 26.1599 6.1135C26.1228 6.1405 25.1038 6.817 25.1038 6.817C25.1038 6.817 25.0637 6.8465 25.0728 6.912C25.1007 7.1285 25.2012 7.811 25.0028 7.9575C24.7634 8.134 22.7197 8.526 22.7197 8.526L22.4676 8.902L21.9269 8.6575C21.8067 8.6065 21.6788 8.577 21.4612 8.6735L20.5867 9.124L19.7102 8.6735C19.4926 8.577 19.3653 8.6065 19.2446 8.6575L18.7038 8.902L18.4522 8.526C18.4522 8.526 16.408 8.134 16.1691 7.9575C15.9703 7.811 16.0707 7.1285 16.0991 6.912C16.1077 6.8465 16.0677 6.817 16.0677 6.817C16.0677 6.817 15.0486 6.1405 15.0116 6.1135C14.6854 5.874 14.1325 6.079 14.0823 6.097C14.0823 6.097 13.5761 6.3495 12.7848 6.7435C10.4986 7.9375 5.55398 10.4965 3.65079 11.296C3.55087 11.3465 3.49101 11.3765 3.47681 11.384C3.24449 11.5085 3.27391 11.689 3.27391 11.689L3.26985 11.764C4.52782 12.6685 5.04572 12.947 6.68159 12.9695L7.11275 12.97C7.49978 12.966 7.94463 12.9525 8.46304 12.9325C8.54978 12.9115 8.63905 12.88 8.71616 12.8315C9.2721 12.4845 12.9501 9.98 13.0283 9.932C13.1505 9.857 13.2656 9.8245 13.3179 9.845C13.3448 9.854 13.4457 9.907 13.4625 9.9175C13.4792 9.9275 13.6466 10.0335 13.5852 10.111C13.5309 10.18 10.4195 12.979 10.4195 12.979C10.4195 12.979 11.7784 12.979 11.8017 12.979C11.8241 12.979 12.3648 13.0155 12.7574 12.695C13.0988 12.415 14.4323 11.1265 14.5018 11.067C14.6007 10.9825 14.7098 10.9875 14.7656 10.9955C14.8924 11.0145 15.0633 11.1335 15.0633 11.1335C15.0633 11.1335 15.1475 11.1725 15.0912 11.2545C15.0349 11.335 13.499 13.39 13.499 13.39C13.499 13.39 13.5502 13.846 14.763 14.0785C15.2221 14.165 15.9566 14.133 16.7839 14.134C16.7839 14.134 17.3165 12.6445 17.3688 12.5145C17.4073 12.418 17.4793 12.4355 17.5047 12.438C17.5306 12.441 17.6234 12.447 17.843 12.5135C17.9303 12.5435 17.9526 12.6735 17.979 12.8005L18.4741 14.588C18.4883 14.6655 18.4497 14.916 18.1753 15.371C17.8253 15.843 16.0525 18.234 15.9708 18.314C15.881 18.4035 16.0418 18.583 16.0951 18.6505L16.3218 18.9135C16.4755 19.1195 16.5775 19.121 16.6916 19.116C16.7007 19.1125 16.7104 19.109 16.7195 19.1055C17.1197 18.95 17.5321 18.818 17.9546 18.711L19.0056 16.8925C19.0614 16.8105 19.1497 16.843 19.1497 16.843C19.1497 16.843 19.3526 16.9 19.4683 16.9685C19.521 17 19.5494 17.108 19.5271 17.1965C19.5134 17.2495 19.3511 17.933 19.2238 18.47C19.6154 18.4205 20.0141 18.3915 20.4183 18.385C20.9377 18.3765 21.4485 18.4065 21.9492 18.47C21.9 18.266 21.657 17.245 21.6443 17.1965C21.6225 17.108 21.6504 17 21.7032 16.9685C21.8188 16.9 22.0217 16.843 22.0217 16.843C22.0217 16.843 22.11 16.8105 22.1658 16.8925L23.2173 18.7115C23.6165 18.8125 24.0061 18.9365 24.385 19.0815C24.4164 19.093 24.4479 19.1035 24.4793 19.116C24.5935 19.121 24.6964 19.1195 24.8496 18.9135L25.0769 18.6505C25.1301 18.583 25.2909 18.4035 25.2006 18.314C25.119 18.234 23.3462 15.843 22.9962 15.371C22.7217 14.916 22.6832 14.6655 22.6974 14.588L23.1925 12.8005C23.2188 12.6735 23.2412 12.5435 23.3289 12.5135C23.548 12.447 23.6409 12.441 23.6667 12.438C23.6921 12.4355 23.7641 12.418 23.8027 12.5145C23.8549 12.6445 24.3875 14.134 24.3875 14.134C25.2154 14.133 25.9493 14.165 26.4084 14.0785C27.6212 13.846 27.6725 13.39 27.6725 13.39C27.6725 13.39 26.1365 11.335 26.0802 11.2545C26.0239 11.1725 26.1081 11.1335 26.1081 11.1335C26.1081 11.1335 26.2796 11.0145 26.4059 10.9955C26.4622 10.9875 26.5707 10.9825 26.6696 11.067C26.7391 11.1265 28.0727 12.415 28.4141 12.695C28.8067 13.0155 29.3474 12.979 29.3697 12.979C29.393 12.979 30.7525 12.979 30.7525 12.979C30.7525 12.979 27.6405 10.18 27.5862 10.111C27.5249 10.0335 27.6922 9.9275 27.709 9.9175C27.7257 9.907 27.8267 9.854 27.8535 9.845C27.9058 9.8245 28.0209 9.857 28.1432 9.932C28.2213 9.98 31.8993 12.4845 32.4553 12.8315C32.5324 12.88 32.6217 12.9115 32.7089 12.9325C33.2273 12.9525 33.6717 12.966 34.0592 12.97L34.4899 12.9695C36.1257 12.947 36.6436 12.6685 37.9016 11.764L37.8975 11.689Z" fill="#FFFFFE"/>
</g>
<mask id="mask5_4_220" style="mask-type:luminance" maskUnits="userSpaceOnUse" x="3" y="5" width="35" height="39">
<path d="M3.22572 5.99819H37.9016V44H3.22572V5.99819Z" fill="white"/>
</mask>
<g mask="url(#mask5_4_220)">
<path fill-rule="evenodd" clip-rule="evenodd" d="M20.7835 40.788C18.5441 40.6005 16.3309 39.549 14.9822 38.958C14.9269 38.931 14.8518 38.9025 14.8285 38.8945C14.8209 39.006 14.8635 39.2855 14.9025 39.4125C14.9522 39.5715 15.2282 40.5715 15.4331 40.6175C15.7268 40.683 17.247 41.0375 18.3498 40.955C18.4264 41.1855 18.296 41.3515 17.452 41.4415C16.6079 41.5335 14.8873 41.4755 14.8356 41.4535C14.827 41.335 14.8046 40.4835 14.5338 40.3225C14.3649 40.222 14.1853 40.1155 13.9981 40.004C13.9093 39.9515 13.818 39.8975 13.7262 39.843C13.6846 39.8185 13.643 39.793 13.6014 39.7685C13.5903 39.762 13.5796 39.756 13.569 39.749C11.5583 38.556 8.98601 36.996 8.90333 36.207C8.87391 35.9365 9.00072 35.556 9.21072 35.3695L9.0621 35.177C8.97282 35.0615 8.54978 34.4815 8.60406 33.97C8.60304 33.967 8.59645 33.9525 8.59036 33.9395L8.44427 33.663C8.37174 33.5275 8.03188 32.836 8.23985 32.335L8.00348 32.4345C7.85942 32.4785 7.67427 32.4545 7.49978 32.392C7.35572 32.462 7.19645 32.4845 7.03616 32.458C6.93522 32.708 6.65369 33.296 6.18551 33.4525C6.07442 33.4895 5.95978 33.5 5.84616 33.4855C5.72036 33.724 5.38 34.2855 4.89659 34.3935C4.7708 34.422 4.64398 34.417 4.52275 34.383C4.39036 34.592 3.98761 35.1585 3.47732 35.227C3.3921 35.2385 3.30739 35.2345 3.22572 35.218L3.23638 35.2375C3.2734 35.304 3.46109 35.6575 3.50369 36.049L3.74109 36.4055C3.78319 36.469 4.00435 36.8145 4.07435 37.209L4.34217 37.5375C4.52022 37.757 4.72667 38.1085 4.78043 38.466L4.96862 38.5685C5.14413 38.664 5.30949 38.841 5.43427 39.052C6.80638 39.8125 8.90993 40.848 11.2529 41.584C12.0219 41.8265 12.8167 42.0365 13.6202 42.1945C14.0823 42.2845 14.547 42.3585 15.0116 42.4105C15.0116 42.4105 15.0928 42.3985 15.0572 42.594C15.0085 42.849 14.722 43.8525 14.7072 43.9075C14.8006 43.933 17.6249 44.6605 20.5908 41.584C21.0012 41.1565 21.0767 41.009 21.1888 40.8095C20.9697 40.802 20.8434 40.792 20.7835 40.788Z" fill="#FFFFFE"/>
</g>
</svg>
